<svg width="16" height="16" viewBox="0 0 16 16" fill="none" xmlns="http://www.w3.org/2000/svg">
<path d="M10.333 11.3333C10.5982 11.3333 10.8526 11.4387 11.0401 11.6262C11.2277 11.8138 11.333 12.0681 11.333 12.3333C11.333 12.5985 11.2277 12.8529 11.0401 13.0404C10.8526 13.228 10.5982 13.3333 10.333 13.3333C10.0678 13.3333 9.81344 13.228 9.6259 13.0404C9.43836 12.8529 9.33301 12.5985 9.33301 12.3333C9.33301 12.0681 9.43836 11.8138 9.6259 11.6262C9.81344 11.4387 10.0678 11.3333 10.333 11.3333ZM10.333 6.66667C10.5982 6.66667 10.8526 6.77202 11.0401 6.95956C11.2277 7.1471 11.333 7.40145 11.333 7.66667C11.333 7.93188 11.2277 8.18624 11.0401 8.37377C10.8526 8.56131 10.5982 8.66667 10.333 8.66667C10.0678 8.66667 9.81344 8.56131 9.6259 8.37377C9.43836 8.18624 9.33301 7.93188 9.33301 7.66667C9.33301 7.40145 9.43836 7.1471 9.6259 6.95956C9.81344 6.77202 10.0678 6.66667 10.333 6.66667ZM10.333 2C10.5982 2 10.8526 2.10536 11.0401 2.29289C11.2277 2.48043 11.333 2.73478 11.333 3C11.333 3.26522 11.2277 3.51957 11.0401 3.70711C10.8526 3.89464 10.5982 4 10.333 4C10.0678 4 9.81344 3.89464 9.6259 3.70711C9.43836 3.51957 9.33301 3.26522 9.33301 3C9.33301 2.73478 9.43836 2.48043 9.6259 2.29289C9.81344 2.10536 10.0678 2 10.333 2Z" fill="#667085"/>
</svg>
